<svg width="1200" height="640" viewBox="0 0 1200 640" fill="none" xmlns="http://www.w3.org/2000/svg">
<path d="M828.248 375.185H774.378V327.543H818.907V310.728H774.378V265.576H824.512V248.761H739.191V392H828.248V375.185Z" fill="black"/>
<path d="M859.987 266.822C851.891 280.731 847.843 298.687 847.843 320.692C847.843 342.697 851.683 360.135 859.364 373.005C867.045 385.668 880.85 392.83 900.778 394.491L955.271 424.384L967.104 402.276L934.72 390.443C957.555 382.347 968.972 358.993 968.972 320.381C968.972 297.13 964.509 278.966 955.583 265.888C946.864 252.602 930.775 245.959 907.318 245.959C884.067 245.959 868.29 252.913 859.987 266.822ZM908.563 259.971C925.586 259.971 934.097 280.108 934.097 320.381C934.097 360.654 925.586 380.79 908.563 380.79C901.92 380.79 896.627 377.987 892.682 372.382C888.738 366.57 886.143 359.512 884.898 351.208C883.652 342.904 883.029 332.629 883.029 320.381C883.029 308.133 883.652 297.857 884.898 289.553C886.143 281.25 888.738 274.295 892.682 268.69C896.627 262.878 901.92 259.971 908.563 259.971Z" fill="black"/>
<path d="M1077.94 375.185H1033.1V248.761H997.918V392H1077.94V375.185Z" fill="black"/>
<circle r="193.5" transform="matrix(1 0 0 -1 291.5 264.5)" fill="#3988FF"/>
<ellipse rx="60.2528" ry="60.324" transform="matrix(0.999217 0.0395713 -0.0394778 0.99922 292.191 264.894)" fill="white"/>
<circle r="133" transform="matrix(1 0 0 -1 501 328)" fill="#69CC1B"/>
<circle cx="501.5" cy="328.5" r="86.5" fill="white"/>
<circle r="102.197" transform="matrix(1 0 0 -1 341.197 484.197)" fill="#C263D1"/>
<circle cx="341.5" cy="484.5" r="27.5" fill="white"/>
<path d="M502.001 327L341 487" stroke="white" stroke-width="18"/>
<path d="M502 325L292 261" stroke="white" stroke-width="20"/>
<path d="M341 485L295 265" stroke="white" stroke-width="17" stroke-linejoin="round"/>
</svg>
